<mxfile host="app.diagrams.net" modified="2021-01-31T20:02:35.589Z" agent="5.0 (Windows NT 6.3; Win64; x64) AppleWebKit/537.36 (KHTML, like Gecko) Chrome/88.0.4324.104 Safari/537.36" etag="gLHUDb1PEywIJfhzfZmJ" version="14.2.9" type="github">
  <diagram id="A5wXgfY7mn-QV8H2mU_j" name="Page-1">
    <mxGraphModel dx="868" dy="450" grid="1" gridSize="10" guides="1" tooltips="1" connect="1" arrows="1" fold="1" page="1" pageScale="1" pageWidth="850" pageHeight="1100" math="0" shadow="0">
      <root>
        <mxCell id="0" />
        <mxCell id="1" parent="0" />
        <mxCell id="1gnbr_ZNTQxtbuUKjrJh-1" value="Number: num1 = input" style="rounded=0;whiteSpace=wrap;html=1;fillColor=#dae8fc;strokeColor=#6c8ebf;" vertex="1" parent="1">
          <mxGeometry x="120" y="160" width="160" height="60" as="geometry" />
        </mxCell>
        <mxCell id="1gnbr_ZNTQxtbuUKjrJh-2" value="onClick" style="rounded=0;whiteSpace=wrap;html=1;fillColor=#d5e8d4;strokeColor=#82b366;" vertex="1" parent="1">
          <mxGeometry x="120" y="20" width="160" height="60" as="geometry" />
        </mxCell>
        <mxCell id="1gnbr_ZNTQxtbuUKjrJh-3" value="" style="endArrow=classic;html=1;entryX=0.5;entryY=0;entryDx=0;entryDy=0;" edge="1" parent="1" source="1gnbr_ZNTQxtbuUKjrJh-2" target="1gnbr_ZNTQxtbuUKjrJh-1">
          <mxGeometry width="50" height="50" relative="1" as="geometry">
            <mxPoint x="400" y="210" as="sourcePoint" />
            <mxPoint x="210" y="130" as="targetPoint" />
          </mxGeometry>
        </mxCell>
        <mxCell id="1gnbr_ZNTQxtbuUKjrJh-4" value="Number: result = num1 * 2" style="rounded=0;whiteSpace=wrap;html=1;fillColor=#dae8fc;strokeColor=#6c8ebf;" vertex="1" parent="1">
          <mxGeometry x="360" y="160" width="160" height="60" as="geometry" />
        </mxCell>
        <mxCell id="1gnbr_ZNTQxtbuUKjrJh-5" value="Render result" style="rounded=0;whiteSpace=wrap;html=1;fillColor=#d5e8d4;strokeColor=#82b366;" vertex="1" parent="1">
          <mxGeometry x="360" y="280" width="160" height="60" as="geometry" />
        </mxCell>
        <mxCell id="1gnbr_ZNTQxtbuUKjrJh-6" value="" style="endArrow=classic;html=1;entryX=0;entryY=0.5;entryDx=0;entryDy=0;exitX=1;exitY=0.5;exitDx=0;exitDy=0;" edge="1" parent="1" source="1gnbr_ZNTQxtbuUKjrJh-1" target="1gnbr_ZNTQxtbuUKjrJh-4">
          <mxGeometry width="50" height="50" relative="1" as="geometry">
            <mxPoint x="300" y="180" as="sourcePoint" />
            <mxPoint x="350.71067811865476" y="190" as="targetPoint" />
          </mxGeometry>
        </mxCell>
        <mxCell id="1gnbr_ZNTQxtbuUKjrJh-7" value="" style="endArrow=classic;html=1;" edge="1" parent="1" source="1gnbr_ZNTQxtbuUKjrJh-4">
          <mxGeometry width="50" height="50" relative="1" as="geometry">
            <mxPoint x="440" y="270" as="sourcePoint" />
            <mxPoint x="440" y="280" as="targetPoint" />
          </mxGeometry>
        </mxCell>
        <mxCell id="1gnbr_ZNTQxtbuUKjrJh-28" value="Number: num1 = input" style="rounded=0;whiteSpace=wrap;html=1;fillColor=#dae8fc;strokeColor=#6c8ebf;" vertex="1" parent="1">
          <mxGeometry x="120" y="540" width="160" height="60" as="geometry" />
        </mxCell>
        <mxCell id="1gnbr_ZNTQxtbuUKjrJh-29" value="onClick" style="rounded=0;whiteSpace=wrap;html=1;fillColor=#d5e8d4;strokeColor=#82b366;" vertex="1" parent="1">
          <mxGeometry x="120" y="400" width="160" height="60" as="geometry" />
        </mxCell>
        <mxCell id="1gnbr_ZNTQxtbuUKjrJh-30" value="" style="endArrow=classic;html=1;entryX=0.5;entryY=0;entryDx=0;entryDy=0;" edge="1" source="1gnbr_ZNTQxtbuUKjrJh-29" target="1gnbr_ZNTQxtbuUKjrJh-28" parent="1">
          <mxGeometry width="50" height="50" relative="1" as="geometry">
            <mxPoint x="400" y="590" as="sourcePoint" />
            <mxPoint x="210" y="510" as="targetPoint" />
          </mxGeometry>
        </mxCell>
        <mxCell id="1gnbr_ZNTQxtbuUKjrJh-31" value="Number: result = num1 / 2" style="rounded=0;whiteSpace=wrap;html=1;fillColor=#dae8fc;strokeColor=#6c8ebf;" vertex="1" parent="1">
          <mxGeometry x="360" y="540" width="160" height="60" as="geometry" />
        </mxCell>
        <mxCell id="1gnbr_ZNTQxtbuUKjrJh-32" value="Render result" style="rounded=0;whiteSpace=wrap;html=1;fillColor=#d5e8d4;strokeColor=#82b366;" vertex="1" parent="1">
          <mxGeometry x="360" y="660" width="160" height="60" as="geometry" />
        </mxCell>
        <mxCell id="1gnbr_ZNTQxtbuUKjrJh-33" value="" style="endArrow=classic;html=1;entryX=0;entryY=0.5;entryDx=0;entryDy=0;exitX=1;exitY=0.5;exitDx=0;exitDy=0;" edge="1" source="1gnbr_ZNTQxtbuUKjrJh-28" target="1gnbr_ZNTQxtbuUKjrJh-31" parent="1">
          <mxGeometry width="50" height="50" relative="1" as="geometry">
            <mxPoint x="300" y="560" as="sourcePoint" />
            <mxPoint x="350.71067811865476" y="570" as="targetPoint" />
          </mxGeometry>
        </mxCell>
        <mxCell id="1gnbr_ZNTQxtbuUKjrJh-34" value="" style="endArrow=classic;html=1;" edge="1" source="1gnbr_ZNTQxtbuUKjrJh-31" parent="1">
          <mxGeometry width="50" height="50" relative="1" as="geometry">
            <mxPoint x="440" y="650" as="sourcePoint" />
            <mxPoint x="440" y="660" as="targetPoint" />
          </mxGeometry>
        </mxCell>
        <mxCell id="1gnbr_ZNTQxtbuUKjrJh-35" value="Number: num1 = input" style="rounded=0;whiteSpace=wrap;html=1;fillColor=#dae8fc;strokeColor=#6c8ebf;" vertex="1" parent="1">
          <mxGeometry x="120" y="920" width="160" height="60" as="geometry" />
        </mxCell>
        <mxCell id="1gnbr_ZNTQxtbuUKjrJh-36" value="onClick" style="rounded=0;whiteSpace=wrap;html=1;fillColor=#d5e8d4;strokeColor=#82b366;" vertex="1" parent="1">
          <mxGeometry x="120" y="780" width="160" height="60" as="geometry" />
        </mxCell>
        <mxCell id="1gnbr_ZNTQxtbuUKjrJh-37" value="" style="endArrow=classic;html=1;entryX=0.5;entryY=0;entryDx=0;entryDy=0;" edge="1" source="1gnbr_ZNTQxtbuUKjrJh-36" target="1gnbr_ZNTQxtbuUKjrJh-35" parent="1">
          <mxGeometry width="50" height="50" relative="1" as="geometry">
            <mxPoint x="400" y="970" as="sourcePoint" />
            <mxPoint x="210" y="890" as="targetPoint" />
          </mxGeometry>
        </mxCell>
        <mxCell id="1gnbr_ZNTQxtbuUKjrJh-38" value="Number: result = &lt;br&gt;num1 * num1 -4" style="rounded=0;whiteSpace=wrap;html=1;fillColor=#dae8fc;strokeColor=#6c8ebf;" vertex="1" parent="1">
          <mxGeometry x="360" y="920" width="160" height="60" as="geometry" />
        </mxCell>
        <mxCell id="1gnbr_ZNTQxtbuUKjrJh-39" value="Render result" style="rounded=0;whiteSpace=wrap;html=1;fillColor=#d5e8d4;strokeColor=#82b366;" vertex="1" parent="1">
          <mxGeometry x="360" y="1040" width="160" height="60" as="geometry" />
        </mxCell>
        <mxCell id="1gnbr_ZNTQxtbuUKjrJh-40" value="" style="endArrow=classic;html=1;entryX=0;entryY=0.5;entryDx=0;entryDy=0;exitX=1;exitY=0.5;exitDx=0;exitDy=0;" edge="1" source="1gnbr_ZNTQxtbuUKjrJh-35" target="1gnbr_ZNTQxtbuUKjrJh-38" parent="1">
          <mxGeometry width="50" height="50" relative="1" as="geometry">
            <mxPoint x="300" y="940" as="sourcePoint" />
            <mxPoint x="350.71067811865476" y="950" as="targetPoint" />
          </mxGeometry>
        </mxCell>
        <mxCell id="1gnbr_ZNTQxtbuUKjrJh-41" value="" style="endArrow=classic;html=1;" edge="1" source="1gnbr_ZNTQxtbuUKjrJh-38" parent="1">
          <mxGeometry width="50" height="50" relative="1" as="geometry">
            <mxPoint x="440" y="1030" as="sourcePoint" />
            <mxPoint x="440" y="1040" as="targetPoint" />
          </mxGeometry>
        </mxCell>
      </root>
    </mxGraphModel>
  </diagram>
</mxfile>
